<?xml version="1.0" encoding="UTF-8" standalone="no"?>
<svg
   width="40"
   height="40"
   viewBox="0 0 40 40"
   fill="none"
   xmlns="http://www.w3.org/2000/svg">
  <path
     d="M28.5,20.5 C28.5,16.5 25.5,13 21,13 C16.5,13 13.5,16.5 13.5,20.5 C13.5,24.5 16.5,28 21,28 C23.5,28 25.5,27 27,25.5 L27,22 L21,22 L21,19 L30,19 L30,26.5 C28,28.5 24.5,30.5 21,30.5 C15,30.5 10.5,26 10.5,20.5 C10.5,15 15,10.5 21,10.5 C27,10.5 31.5,15 31.5,20.5 L28.5,20.5 Z"
     fill="#0f172a"
     stroke="none" />
</svg>
