<?xml version="1.0" encoding="UTF-8" standalone="no"?>
<!-- Created with Inkscape (http://www.inkscape.org/) -->

<svg
   width="24.595888mm"
   height="37.356159mm"
   viewBox="0 0 24.595888 37.35616"
   version="1.1"
   id="svg1"
   xmlns="http://www.w3.org/2000/svg"
   xmlns:svg="http://www.w3.org/2000/svg">
  <defs
     id="defs1" />
  <g
     id="layer1"
     transform="translate(-28.294518,-77.301361)">
    <path
       style="font-weight:500;font-size:50.8px;font-family:'Helvetica Compressed';-inkscape-font-specification:'Helvetica Compressed Medium';fill:#0047AB;stroke-width:0.264583"
       d="m 39.472766,86.635469 c 0,-1.0668 0.3556,-2.184399 1.6764,-2.184399 1.3208,0 1.6764,1.117599 1.6764,2.184399 v 8.3312 c 0,1.0668 -0.3556,2.1844 -1.6764,2.1844 -1.3208,0 -1.6764,-1.1176 -1.6764,-2.1844 z m 11.3792,-8.432799 h -8.0772 v 3.7592 h -0.1016 c -1.1176,-2.6416 -2.7432,-4.1148 -5.9944,-4.1148 -2.7432,0 -5.2324,2.0828 -5.2324,6.7056 v 11.887199 c 0,4.216401 1.6256,7.315201 6.35,7.315201 2.5908,0 4.6228,-1.778 4.8768,-4.267201 h 0.1524 v 7.213601 c 0,1.016 -0.4064,1.778 -1.6764,1.778 -1.27,0 -1.6764,-0.762 -1.6764,-1.778 v -1.9304 h -8.0264 v 2.8448 c 0,3.0988 3.3528,6.1468 9.4996,6.1468 3.556,0 9.906,-1.2192 9.906,-9.2964 z"
       id="text2"
       aria-label="brand logo" />
    <rect
       style="fill:#0047AB;fill-opacity:0;stroke-width:0.264583"
       id="rect2"
       width="24.595888"
       height="37.356159"
       x="28.294518"
       y="77.301361" />
  </g>
</svg>
