<?xml version="1.0" encoding="UTF-8" standalone="no"?>
<!-- Created with Inkscape (http://www.inkscape.org/) -->

<svg
   version="1.1"
   id="svg1"
   width="138.62315"
   height="134.93608"
   viewBox="0 0 138.62315 134.93608"
   xmlns="http://www.w3.org/2000/svg"
   xmlns:svg="http://www.w3.org/2000/svg">
  <defs
     id="defs1" />
  <g
     id="g1"
     transform="translate(-83.82051,-146.10933)">
    <path
       style="fill:#000000"
       d="m 137.58188,280.90218 c -8.5074,-1.453 -15.82194,-3.90806 -22.32,-7.49151 -3.44878,-1.90188 -10.97636,-7.86082 -13.95391,-11.04614 -3.651311,-3.90606 -8.816821,-11.57632 -10.765841,-15.98615 -0.81676,-1.848 -1.68888,-3.792 -1.93804,-4.32 -4.20158,-8.90357 -5.89212,-24.46626 -4.03426,-37.1384 0.9649,-6.58147 1.72218,-9.46053 3.79907,-14.44349 0.93114,-2.23404 1.69298,-4.21444 1.69298,-4.40089 0,-0.90006 5.94729,-10.25447 8.52565,-13.40988 5.216241,-6.38364 12.205291,-12.66733 18.133131,-16.30305 4.8544,-2.97735 12.79699,-6.60533 16.54122,-7.55563 10.36891,-2.63167 10.97529,-2.7091 21.12,-2.69682 7.78574,0.009 10.59156,0.1921 13.44,0.87502 1.98,0.47471 4.5869,1.03517 5.7931,1.24546 5.22427,0.91082 17.92846,7.19559 22.99135,11.37382 3.65734,3.01828 7.66453,7.18977 8.16101,8.49562 0.62557,1.64537 0.10761,2.81412 -2.70836,6.11128 -2.78035,3.25545 -4.5723,4.78281 -9.10165,7.7577 -2.97703,1.95532 -3.75241,2.24926 -5.93339,2.24926 -2.20935,0 -2.77462,-0.22174 -4.73544,-1.85759 -8.02002,-6.69083 -18.28225,-10.61965 -27.74439,-10.62175 -12.43635,-0.003 -26.15217,6.991 -33.67344,17.17023 -7.062,9.55766 -9.79798,17.36168 -9.79858,27.94911 -7.5e-4,13.23179 4.13634,22.45433 13.79513,30.75257 1.93212,1.65997 3.64516,2.57336 7.91466,4.22011 5.03591,1.94236 7.93525,2.46732 13.62684,2.46732 11.16934,0 21.68551,-4.93246 30.69013,-14.39479 3.6338,-3.81849 8.74237,-10.72974 10.63175,-14.38339 l 0.75593,-1.46182 h -10.36205 c -10.12128,0 -10.4224,-0.0285 -12.95961,-1.22884 -4.35747,-2.06141 -6.93339,-5.89322 -6.94031,-10.32404 -0.004,-2.81755 1.29927,-6.37523 2.89726,-7.90651 l 1.48251,-1.42061 25.52878,-0.13323 c 16.26432,-0.0849 26.369,0.0467 27.84408,0.3625 2.05719,0.44047 5.20284,2.2691 6.20658,3.608 0.19904,0.2655 0.30704,11.84955 0.24,25.74232 l -0.12189,25.2596 -1.2,1.67612 c -2.33466,3.26097 -3.98256,4.25416 -7.13264,4.29883 -3.57655,0.0507 -5.25159,-1.03105 -6.98606,-4.51166 -1.08703,-2.1814 -1.24152,-3.0907 -1.24309,-7.31672 l -0.002,-4.82576 -0.91884,1.50688 c -0.50537,0.82878 -1.10583,1.58478 -1.33435,1.68 -0.22853,0.0952 -1.41568,1.46912 -2.63812,3.05312 -2.39732,3.10637 -7.52794,8.194 -12.1451,12.04334 -7.84854,6.54335 -19.56912,11.90799 -31.92,14.61014 -2.60555,0.57005 -16.87103,1.06809 -19.2,0.67032 z"
       id="path13" />
  </g>
</svg>
