<?xml version="1.0" encoding="UTF-8" standalone="no"?>
<!-- Created with Inkscape (http://www.inkscape.org/) -->

<svg
   version="1.1"
   id="svg1"
   width="258.44977"
   height="314.20667"
   viewBox="0 0 258.44976 314.20667"
   xmlns:xlink="http://www.w3.org/1999/xlink"
   xmlns="http://www.w3.org/2000/svg"
   xmlns:svg="http://www.w3.org/2000/svg">
  <defs
     id="defs1">
    <color-profile
       name="ASUSTek-COMPUTER-INC-15.6"
       xlink:href="../.local/share/icc/edid-8c1b0adac7a1491b55d7ece575856d2e.icc"
       id="color-profile1" />
    <clipPath
       clipPathUnits="userSpaceOnUse"
       id="clipPath1">
      <rect
         style="fill:#1a1a1a;fill-opacity:0;fill-rule:nonzero"
         id="rect2"
         width="268.24881"
         height="323.36844"
         x="2.0349684"
         y="317.78888"
         ry="0" />
    </clipPath>
  </defs>
  <g
     id="g1"
     transform="translate(-11.834011,-323.91328)"
     style="display:inline">
    <path
       style="fill:#5A3FFF;fill-opacity:1;fill-rule:nonzero;stroke-width:1.14965"
       d="m 121.69427,633.62061 c -5.37337,-5.37335 -5.10831,-7.90812 4.79065,-45.81472 4.36914,-16.731 7.94391,-30.55932 7.94391,-30.7296 0,-0.17028 -7.11344,-0.5721 -15.80766,-0.89293 -129.276719,-4.77034 -146.647769,-183.04687 -21.967494,-225.44911 21.089124,-7.17214 19.651124,-7.06555 90.084144,-6.67824 82.64813,0.45444 79.98588,-1.03734 58.91303,33.01155 -9.76807,15.78298 -2.59747,14.13523 -63.52,14.59646 l -52.87544,0.4003 -10.79689,3.71708 c -48.553263,16.71555 -71.017466,59.33628 -52.184575,99.00838 18.363333,38.68294 74.818295,46.20186 106.796525,14.22364 4.93075,-4.93077 19.99042,-24.69218 19.99042,-26.2316 0,-0.30098 -18.39963,-0.54722 -40.88808,-0.54722 -42.49511,0 -45.33554,-0.30252 -45.33554,-4.82837 0,-4.17258 15.91877,-31.46 20.48918,-35.1219 1.38761,-1.11177 16.58911,-1.43706 67.15607,-1.43706 h 65.36246 l 2.82188,2.82187 c 5.88709,5.88707 5.06897,7.95673 -15.90035,40.22365 -15.9175,24.49338 -32.53641,50.15214 -52.53827,81.11648 -65.58373,101.5284 -62.89798,98.24734 -72.53397,88.61134 z"
       id="path1"
       clip-path="url(#clipPath1)" />
  </g>
</svg>
