<?xml version="1.0" encoding="UTF-8" standalone="no"?>
<!-- Created with Inkscape (http://www.inkscape.org/) -->

<svg
   version="1.1"
   id="svg1"
   width="1006.4672"
   height="314.20667"
   viewBox="0 0 1006.4672 314.20667"
   xmlns:xlink="http://www.w3.org/1999/xlink"
   xmlns="http://www.w3.org/2000/svg"
   xmlns:svg="http://www.w3.org/2000/svg">
  <defs
     id="defs1">
    <color-profile
       name="ASUSTek-COMPUTER-INC-15.6"
       xlink:href="../.local/share/icc/edid-8c1b0adac7a1491b55d7ece575856d2e.icc"
       id="color-profile1" />
  </defs>
  <g
     id="g1"
     transform="translate(-11.834011,-323.91328)"
     style="display:inline">
    <path
       style="fill:#0073ee;fill-opacity:1;fill-rule:nonzero;stroke-width:1.14965"
       d="m 121.69427,633.62061 c -5.37337,-5.37335 -5.10831,-7.90812 4.79065,-45.81472 4.36914,-16.731 7.94391,-30.55932 7.94391,-30.7296 0,-0.17028 -7.11344,-0.5721 -15.80766,-0.89293 -129.276719,-4.77034 -146.647769,-183.04687 -21.967494,-225.44911 21.089124,-7.17214 19.651124,-7.06555 90.084144,-6.67824 82.64813,0.45444 79.98588,-1.03734 58.91303,33.01155 -9.76807,15.78298 -2.59747,14.13523 -63.52,14.59646 l -52.87544,0.4003 -10.79689,3.71708 c -48.553263,16.71555 -71.017466,59.33628 -52.184575,99.00838 18.363333,38.68294 74.818295,46.20186 106.796525,14.22364 4.93075,-4.93077 19.99042,-24.69218 19.99042,-26.2316 0,-0.30098 -18.39963,-0.54722 -40.88808,-0.54722 -42.49511,0 -45.33554,-0.30252 -45.33554,-4.82837 0,-4.17258 15.91877,-31.46 20.48918,-35.1219 1.38761,-1.11177 16.58911,-1.43706 67.15607,-1.43706 h 65.36246 l 2.82188,2.82187 c 5.88709,5.88707 5.06897,7.95673 -15.90035,40.22365 -15.9175,24.49338 -32.53641,50.15214 -52.53827,81.11648 -65.58373,101.5284 -62.89798,98.24734 -72.53397,88.61134 z M 791.24452,532.61136 c -81.39197,-16.44968 -70.83179,-134.90418 12.02679,-134.90551 20.7167,-3.4e-4 35.21513,5.42152 48.32189,18.0706 l 7.68881,7.42033 -9.51514,8.91137 -9.51514,8.91137 -6.66058,-6.47721 c -15.44657,-15.02135 -39.78296,-15.67388 -56.32979,-1.51041 -17.18586,14.71047 -16.83677,48.8348 0.66465,64.96703 19.09336,17.59966 56.63856,12.04913 56.63856,-8.37317 v -7.84714 h -16.09508 -16.09507 v -11.49649 -11.49648 h 29.31603 29.31603 v 24.13283 24.13284 l -7.1853,7.27092 c -15.87078,16.0599 -39.47381,22.9583 -62.57666,18.28912 z m -465.39928,-1.28911 c -68.48835,-20.12302 -64.78804,-118.25978 4.98599,-132.23409 52.06002,-10.42655 93.34357,32.17827 81.18112,83.77931 -8.62373,36.58744 -49.09656,59.34673 -86.16711,48.45478 z m 36.48278,-26.33042 c 30.83206,-13.72091 30.02342,-66.15905 -1.22888,-79.68967 -26.40294,-11.43111 -53.15616,6.54707 -55.05331,36.99586 -2.09437,33.61442 27.03367,55.71 56.28219,42.69381 z m 569.05646,26.85477 c -30.31208,-7.33957 -50.78159,-33.99533 -50.80802,-66.16306 -0.0724,-88.20224 133.10114,-91.90753 137.62454,-3.82911 2.4318,47.34955 -39.78036,81.38124 -86.81652,69.99217 z m 36.01064,-27.34329 c 38.26988,-19.6482 24.18121,-82.18351 -18.44051,-81.85081 -46.02141,0.35922 -55.47931,69.48533 -11.49649,84.02579 7.6184,2.51861 22.96696,1.40351 29.937,-2.17498 z m -537.50671,-39.3946 v -66.10477 l 12.93354,0.0504 12.93355,0.0506 16.06028,22.0802 c 8.83315,12.14412 22.5427,30.84766 30.46567,41.56343 l 14.40539,19.48329 0.30178,-41.61394 0.30174,-41.61393 h 13.78143 13.78144 v 66.10477 66.10477 h -12.39825 c -12.30256,0 -12.4128,-0.0244 -14.28084,-3.16152 -1.03544,-1.73884 -9.44111,-13.50838 -18.67927,-26.1545 -9.23818,-12.64614 -21.4374,-29.45974 -27.10937,-37.36357 -5.67197,-7.90383 -11.33456,-15.66396 -12.58354,-17.24472 l -2.27087,-2.87412 -0.0255,43.39921 -0.0256,43.39922 H 443.6842 429.88842 Z m 136.80814,57.17057 v -8.93418 l 15.66474,-22.96855 c 8.61559,-12.63269 20.34542,-29.95265 26.06627,-38.48879 5.72085,-8.53614 12.63556,-18.49496 15.366,-22.13073 l 4.96447,-6.61048 H 597.7273 566.69655 v -12.0713 -12.07131 h 50.58451 50.58452 v 5.94947 c 0,6.25589 -1.97608,9.57507 -29.31149,49.23365 -16.24665,23.57084 -35.06881,51.58593 -35.06881,52.19678 0,0.37789 14.48557,0.68704 32.19016,0.68704 h 32.19014 v 12.0713 12.0713 h -50.58452 -50.58451 z m 120.71306,-57.17057 v -66.10477 h 13.79577 13.79578 v 66.10477 66.10477 h -13.79578 -13.79577 z"
       id="path1" />
  </g>
</svg>
