<?xml version="1.0" encoding="UTF-8" standalone="no"?>
<!-- Created with Inkscape (http://www.inkscape.org/) -->

<svg
   version="1.1"
   id="svg1"
   width="884.51776"
   height="285.00723"
   viewBox="0 0 884.51776 285.00723"
   xmlns="http://www.w3.org/2000/svg"
   xmlns:svg="http://www.w3.org/2000/svg">
  <defs
     id="defs1" />
  <g
     id="g1"
     transform="translate(-81.894374,-366.89958)">
    <path
       style="fill:#000000"
       d="m 162.14946,651.32616 c -31.03903,-3.34492 -58.21176,-22.11523 -70.956814,-49.01535 -3.637453,-7.67733 -7.931563,-22.47382 -6.972504,-24.02561 0.301045,-0.4871 8.395796,-0.88564 17.988338,-0.88564 13.49142,0 17.44098,0.28945 17.44098,1.27821 0,0.70302 1.58409,4.58366 3.52021,8.62366 4.1276,8.61286 14.00804,19.04098 22.15527,23.38336 11.09914,5.91572 29.33217,8.32986 42.5253,5.63055 2.91457,-0.59632 9.38426,-3.04367 14.37709,-5.43856 7.26224,-3.48345 10.29295,-5.65326 15.15307,-10.84875 7.9147,-8.46083 10.59207,-15.1773 10.09145,-25.31545 -0.44434,-8.99843 -3.78538,-14.39079 -11.31266,-18.25838 l -4.97196,-2.55464 -27.51889,-0.0101 c -25.25045,-0.009 -28.26077,-0.19667 -36.51888,-2.27374 -41.33647,-10.39686 -67.638541,-47.73363 -65.0843,-92.3896 1.817868,-31.78191 16.846509,-58.50319 42.58702,-75.72074 10.02867,-6.70806 20.35055,-11.23078 32.6903,-14.32382 8.42995,-2.11303 10.76628,-2.20912 54.57418,-2.24478 l 45.76721,-0.0372 0.23279,14.5 0.2328,14.5 -3.5,0.25186 c -4.20934,0.30291 -15.20632,2.26313 -16.23097,2.89318 -0.40204,0.24721 0.82141,1.81249 2.71876,3.47839 5.67117,4.97934 14.40467,17.37023 18.69285,26.52096 14.2165,30.33724 8.43881,68.68459 -13.89391,92.21572 -3.4173,3.60068 -6.1173,6.60007 -6,6.66532 10.31663,5.73893 14.95829,10.49026 19.21181,19.66576 3.7011,7.98384 4.7914,14.95658 4.26601,27.28225 -0.61491,14.42595 -3.96282,24.69368 -11.94356,36.62977 -18.83259,28.16627 -53.61024,43.67173 -89.32099,39.82337 z m 26,-132.431 c 21.15176,-4.44087 38.25855,-20.6488 42.99443,-40.73533 3.19114,-13.53477 1.32149,-29.67804 -4.89363,-42.25348 -8.75638,-17.71733 -24.67617,-28.16157 -45.85042,-30.08033 -23.69855,-2.14751 -48.56837,13.65878 -57.54529,36.57354 -3.10337,7.92174 -4.1529,13.47325 -4.18064,22.11351 -0.0349,10.85757 1.39939,17.2394 5.9602,26.52033 10.78529,21.94732 36.97227,33.43455 63.51535,27.86176 z m 558,82.94164 c -10.04978,-1.97381 -23.72689,-9.04533 -31.55615,-16.31557 l -6.44385,-5.98375 8.75124,-8.81306 c 6.59668,-6.64328 9.08417,-8.56831 10.1035,-7.81896 0.74373,0.54675 3.55567,2.66223 6.24875,4.70105 8.35555,6.32564 15.09221,8.29305 28.39651,8.29305 9.64368,0 12.49811,-0.37885 17.6833,-2.34698 13.00671,-4.93693 18.24098,-12.50052 19.22847,-27.78539 0.33286,-5.1522 0.44543,-9.36763 0.25017,-9.36763 -0.19527,0 -2.31664,1.72667 -4.71415,3.83704 -9.68438,8.52453 -21.21838,12.58113 -35.45476,12.4697 -26.35881,-0.2063 -46.78698,-15.84089 -54.62474,-41.80674 -2.74338,-9.08862 -2.56221,-28.69286 0.35118,-38 4.67796,-14.94421 16.87914,-29.73343 29.76028,-36.07284 19.3917,-9.54357 43.90836,-8.05842 59.30164,3.59232 l 5.21861,3.94981 v -5.98464 -5.98465 h 14 14 v 59.04216 c 0,65.41108 -0.28294,69.02717 -6.28486,80.3228 -12.66652,23.83845 -43.12193,36.1791 -74.21514,30.07228 z m 28.5,-76.98931 c 16.83255,-3.94272 27.23662,-18.30233 25.641,-35.38948 -1.64629,-17.62966 -14.89287,-30.3998 -32.95066,-31.76551 -20.78166,-1.57171 -35.82568,12.55501 -35.89575,33.70706 -0.0825,24.90169 18.44764,39.24699 43.20541,33.44793 z m -443.24279,28.51838 c -25.12394,-4.22963 -44.28021,-22.15078 -49.41232,-46.22642 -1.99696,-9.36807 -1.28198,-23.70522 1.65763,-33.23989 5.91009,-19.16948 22.24384,-35.36331 41.49748,-41.14199 4.43549,-1.33124 9.25941,-1.79089 18.5,-1.76277 10.8318,0.033 13.58865,0.39805 20.65739,2.73565 36.18282,11.96549 52.57124,52.4017 35.37708,87.28814 -11.67798,23.69429 -39.99306,37.10894 -68.27726,32.34728 z m 26.24805,-29.25057 c 10.75565,-4.84568 17.62997,-14.96563 18.67859,-27.4975 1.79487,-21.45014 -13.45329,-39.23728 -33.61535,-39.21266 -13.49111,0.0165 -25.83301,8.9501 -30.71573,22.23344 -2.35642,6.41059 -2.079,19.88347 0.55266,26.84033 3.6793,9.72633 11.33841,16.86786 21.04513,19.62297 6.6594,1.89017 17.42276,1.00127 24.0547,-1.98658 z m 530.49474,28.71751 c -20.46459,-4.031 -38.06658,-19.66203 -44.59966,-39.60567 -2.03959,-6.2263 -2.38935,-9.20623 -2.32724,-19.82758 0.0628,-10.73106 0.4504,-13.64321 2.7393,-20.57841 6.1991,-18.78284 21.4177,-33.81656 40.1876,-39.69938 5.67494,-1.77863 9.36619,-2.18824 19.5,-2.16387 10.96147,0.0264 13.45739,0.3634 20.27843,2.73834 21.3718,7.44118 36.86859,24.57574 41.33487,45.70332 1.98418,9.38605 1.3476,22.88274 -1.51001,32.01528 -9.50308,30.37061 -41.81669,48.07306 -75.60329,41.41797 z m 29.51979,-28.61735 c 10.00141,-4.63825 15.97808,-12.77453 18.21346,-24.79472 2.97377,-15.99059 -4.99179,-32.09972 -19.23325,-38.89635 -4.68088,-2.23391 -6.84037,-2.62376 -14.5,-2.61766 -10.12013,0.008 -14.27765,1.58683 -21.6004,8.2025 -10.27726,9.28489 -13.60423,25.41462 -8.36079,40.53453 1.85486,5.34864 9.13937,14.01425 13.84123,16.46544 9.70069,5.05718 22.1796,5.4935 31.63975,1.10626 z m -497.01979,-32.8159 v -59 h 15 15 v 6.09267 6.09267 l 5.04837,-4.53892 c 6.26428,-5.63213 14.09331,-8.67339 24.15343,-9.38262 22.39338,-1.57873 38.44832,8.82936 45.95266,29.79016 2.24648,6.27477 2.31677,7.55534 2.64519,48.19604 l 0.33739,41.75 h -14.56852 -14.56852 v -35.8185 c 0,-39.80265 -0.42403,-43.17804 -6.25907,-49.82378 -8.38922,-9.5548 -26.31995,-9.7787 -35.65345,-0.4452 -6.80845,6.80845 -7.08748,8.76771 -7.08748,49.76562 v 36.32186 h -15 -15 z m 127,47.89625 v -11.10374 l 9.22759,-12.64626 c 5.07517,-6.95544 16.55017,-22.42513 25.5,-34.37709 8.94983,-11.95196 16.27241,-22.01001 16.27241,-22.35122 0,-0.34121 -11.45218,-0.46233 -25.4493,-0.26916 l -25.4493,0.35122 -0.3007,-13.25168 -0.3007,-13.25169 46.75,0.002 46.75,10e-4 v 9.03544 9.03544 l -25.62859,34.21456 c -14.09573,18.81801 -26.47073,35.14356 -27.5,36.27901 -1.02928,1.13545 -1.87141,2.37295 -1.87141,2.75 0,0.37705 12.375,0.68555 27.5,0.68555 h 27.5 v 13 13 h -46.5 -46.5 z m 109,-47.89625 v -59 h 14.5 14.5 v 59 59 h -14.5 -14.5 z m -2,-90.5 v -15.5 h 17 17 v 15.5 15.5 h -17 -17 z"
       id="path1" />
  </g>
</svg>
