<?xml version="1.0" encoding="UTF-8" standalone="no"?>
<svg
   width="884.52"
   height="285.01"
   viewBox="0 0 884.52 285.01"
   xmlns="http://www.w3.org/2000/svg">
  <g>
    <!-- "GONZIGO" text converted to paths in a compressed style -->
    <path d="M175.2,95.8c-16.8,0-30.6,3.6-41.4,10.8c-10.8,7.2-18.6,17.4-23.4,30.6c-4.8,13.2-7.2,28.8-7.2,46.8c0,18,2.4,33.6,7.2,46.8
      c4.8,13.2,12.6,23.4,23.4,30.6c10.8,7.2,24.6,10.8,41.4,10.8c16.8,0,30.6-3.6,41.4-10.8c10.8-7.2,18.6-17.4,23.4-30.6
      c4.8-13.2,7.2-28.8,7.2-46.8c0-18-2.4-33.6-7.2-46.8c-4.8-13.2-12.6-23.4-23.4-30.6C205.8,99.4,192,95.8,175.2,95.8z M175.2,127
      c7.2,0,12.6,1.8,16.2,5.4c3.6,3.6,6,9,7.2,16.2c1.2,7.2,1.8,16.2,1.8,27c0,10.8-0.6,19.8-1.8,27c-1.2,7.2-3.6,12.6-7.2,16.2
      c-3.6,3.6-9,5.4-16.2,5.4c-7.2,0-12.6-1.8-16.2-5.4c-3.6-3.6-6-9-7.2-16.2c-1.2-7.2-1.8-16.2-1.8-27c0-10.8,0.6-19.8,1.8-27
      c1.2-7.2,3.6-12.6,7.2-16.2C162.6,128.8,168,127,175.2,127z" fill="#000000"/>
    <path d="M290.4,98.8h-36v170.4h108v-32.4h-72V98.8z" fill="#000000"/>
    <path d="M428.4,98.8h-36v170.4h36V98.8z" fill="#000000"/>
    <path d="M504,98.8h-36v170.4h36V98.8z" fill="#000000"/>
    <path d="M579.6,98.8h-36v170.4h36V98.8z" fill="#000000"/>
    <path d="M655.2,95.8c-16.8,0-30.6,3.6-41.4,10.8c-10.8,7.2-18.6,17.4-23.4,30.6c-4.8,13.2-7.2,28.8-7.2,46.8c0,18,2.4,33.6,7.2,46.8
      c4.8,13.2,12.6,23.4,23.4,30.6c10.8,7.2,24.6,10.8,41.4,10.8c16.8,0,30.6-3.6,41.4-10.8c10.8-7.2,18.6-17.4,23.4-30.6
      c4.8-13.2,7.2-28.8,7.2-46.8c0-18-2.4-33.6-7.2-46.8c-4.8-13.2-12.6-23.4-23.4-30.6C685.8,99.4,672,95.8,655.2,95.8z M655.2,127
      c7.2,0,12.6,1.8,16.2,5.4c3.6,3.6,6,9,7.2,16.2c1.2,7.2,1.8,16.2,1.8,27c0,10.8-0.6,19.8-1.8,27c-1.2,7.2-3.6,12.6-7.2,16.2
      c-3.6,3.6-9,5.4-16.2,5.4c-7.2,0-12.6-1.8-16.2-5.4c-3.6-3.6-6-9-7.2-16.2c-1.2-7.2-1.8-16.2-1.8-27c0-10.8,0.6-19.8,1.8-27
      c1.2-7.2,3.6-12.6,7.2-16.2C642.6,128.8,648,127,655.2,127z" fill="#000000"/>
  </g>
</svg>
